<svg xmlns="http://www.w3.org/2000/svg" version="1.1" xmlns:xlink="http://www.w3.org/1999/xlink" xmlns:svgjs="http://svgjs.dev/svgjs" viewBox="0 0 800 800" opacity="0.64" width="800" height="800"><g stroke-width="5" stroke="#260145ff" fill="none"><circle r="9.605263157894736" cx="0" cy="0" fill="#260145ff" stroke="none"></circle><circle r="9.605263157894736" cx="100" cy="0" fill="#371b6bff" stroke="none"></circle><circle r="9.605263157894736" cx="200" cy="0" fill="#260145ff" stroke="none"></circle><circle r="9.605263157894736" cx="300" cy="0" fill="#371b6bff" stroke="none"></circle><circle r="9.605263157894736" cx="400" cy="0" fill="#260145ff" stroke="none"></circle><circle r="9.605263157894736" cx="500" cy="0" fill="#371b6bff" stroke="none"></circle><circle r="9.605263157894736" cx="600" cy="0" fill="#260145ff" stroke="none"></circle><circle r="9.605263157894736" cx="700" cy="0" fill="#371b6bff" stroke="none"></circle><circle r="9.605263157894736" cx="800" cy="0" fill="#260145ff" stroke="none"></circle><circle r="9.605263157894736" cx="0" cy="66.66666666666667" fill="#371b6bff" stroke="none"></circle><circle r="9.605263157894736" cx="100" cy="66.66666666666667" fill="#260145ff" stroke="none"></circle><circle r="9.605263157894736" cx="200" cy="66.66666666666667" fill="#371b6bff" stroke="none"></circle><circle r="9.605263157894736" cx="300" cy="66.66666666666667" fill="#260145ff" stroke="none"></circle><circle r="9.605263157894736" cx="400" cy="66.66666666666667" fill="#371b6bff" stroke="none"></circle><circle r="9.605263157894736" cx="500" cy="66.66666666666667" fill="#260145ff" stroke="none"></circle><circle r="9.605263157894736" cx="600" cy="66.66666666666667" fill="#371b6bff" stroke="none"></circle><circle r="9.605263157894736" cx="700" cy="66.66666666666667" fill="#260145ff" stroke="none"></circle><circle r="9.605263157894736" cx="800" cy="66.66666666666667" fill="#371b6bff" stroke="none"></circle><circle r="9.605263157894736" cx="0" cy="133.33333333333334" fill="#260145ff" stroke="none"></circle><circle r="9.605263157894736" cx="100" cy="133.33333333333334" fill="#371b6bff" stroke="none"></circle><circle r="9.605263157894736" cx="200" cy="133.33333333333334" fill="#260145ff" stroke="none"></circle><circle r="9.605263157894736" cx="300" cy="133.33333333333334" fill="#371b6bff" stroke="none"></circle><circle r="9.605263157894736" cx="400" cy="133.33333333333334" fill="#260145ff" stroke="none"></circle><circle r="9.605263157894736" cx="500" cy="133.33333333333334" fill="#371b6bff" stroke="none"></circle><circle r="9.605263157894736" cx="600" cy="133.33333333333334" fill="#260145ff" stroke="none"></circle><circle r="9.605263157894736" cx="700" cy="133.33333333333334" fill="#371b6bff" stroke="none"></circle><circle r="9.605263157894736" cx="800" cy="133.33333333333334" fill="#260145ff" stroke="none"></circle><circle r="9.605263157894736" cx="0" cy="200" fill="#371b6bff" stroke="none"></circle><circle r="9.605263157894736" cx="100" cy="200" fill="#260145ff" stroke="none"></circle><circle r="9.605263157894736" cx="200" cy="200" fill="#371b6bff" stroke="none"></circle><circle r="9.605263157894736" cx="300" cy="200" fill="#260145ff" stroke="none"></circle><circle r="9.605263157894736" cx="400" cy="200" fill="#371b6bff" stroke="none"></circle><circle r="9.605263157894736" cx="500" cy="200" fill="#260145ff" stroke="none"></circle><circle r="9.605263157894736" cx="600" cy="200" fill="#371b6bff" stroke="none"></circle><circle r="9.605263157894736" cx="700" cy="200" fill="#260145ff" stroke="none"></circle><circle r="9.605263157894736" cx="800" cy="200" fill="#371b6bff" stroke="none"></circle><circle r="9.605263157894736" cx="0" cy="266.6666666666667" fill="#260145ff" stroke="none"></circle><circle r="9.605263157894736" cx="100" cy="266.6666666666667" fill="#371b6bff" stroke="none"></circle><circle r="9.605263157894736" cx="200" cy="266.6666666666667" fill="#260145ff" stroke="none"></circle><circle r="9.605263157894736" cx="300" cy="266.6666666666667" fill="#371b6bff" stroke="none"></circle><circle r="9.605263157894736" cx="400" cy="266.6666666666667" fill="#260145ff" stroke="none"></circle><circle r="9.605263157894736" cx="500" cy="266.6666666666667" fill="#371b6bff" stroke="none"></circle><circle r="9.605263157894736" cx="600" cy="266.6666666666667" fill="#260145ff" stroke="none"></circle><circle r="9.605263157894736" cx="700" cy="266.6666666666667" fill="#371b6bff" stroke="none"></circle><circle r="9.605263157894736" cx="800" cy="266.6666666666667" fill="#260145ff" stroke="none"></circle><circle r="9.605263157894736" cx="0" cy="333.33333333333337" fill="#371b6bff" stroke="none"></circle><circle r="9.605263157894736" cx="100" cy="333.33333333333337" fill="#260145ff" stroke="none"></circle><circle r="9.605263157894736" cx="200" cy="333.33333333333337" fill="#371b6bff" stroke="none"></circle><circle r="9.605263157894736" cx="300" cy="333.33333333333337" fill="#260145ff" stroke="none"></circle><circle r="9.605263157894736" cx="400" cy="333.33333333333337" fill="#371b6bff" stroke="none"></circle><circle r="9.605263157894736" cx="500" cy="333.33333333333337" fill="#260145ff" stroke="none"></circle><circle r="9.605263157894736" cx="600" cy="333.33333333333337" fill="#371b6bff" stroke="none"></circle><circle r="9.605263157894736" cx="700" cy="333.33333333333337" fill="#260145ff" stroke="none"></circle><circle r="9.605263157894736" cx="800" cy="333.33333333333337" fill="#371b6bff" stroke="none"></circle><circle r="9.605263157894736" cx="0" cy="400.00000000000006" fill="#260145ff" stroke="none"></circle><circle r="9.605263157894736" cx="100" cy="400.00000000000006" fill="#371b6bff" stroke="none"></circle><circle r="9.605263157894736" cx="200" cy="400.00000000000006" fill="#260145ff" stroke="none"></circle><circle r="9.605263157894736" cx="300" cy="400.00000000000006" fill="#371b6bff" stroke="none"></circle><circle r="9.605263157894736" cx="400" cy="400.00000000000006" fill="#260145ff" stroke="none"></circle><circle r="9.605263157894736" cx="500" cy="400.00000000000006" fill="#371b6bff" stroke="none"></circle><circle r="9.605263157894736" cx="600" cy="400.00000000000006" fill="#260145ff" stroke="none"></circle><circle r="9.605263157894736" cx="700" cy="400.00000000000006" fill="#371b6bff" stroke="none"></circle><circle r="9.605263157894736" cx="800" cy="400.00000000000006" fill="#260145ff" stroke="none"></circle><circle r="9.605263157894736" cx="0" cy="466.66666666666674" fill="#371b6bff" stroke="none"></circle><circle r="9.605263157894736" cx="100" cy="466.66666666666674" fill="#260145ff" stroke="none"></circle><circle r="9.605263157894736" cx="200" cy="466.66666666666674" fill="#371b6bff" stroke="none"></circle><circle r="9.605263157894736" cx="300" cy="466.66666666666674" fill="#260145ff" stroke="none"></circle><circle r="9.605263157894736" cx="400" cy="466.66666666666674" fill="#371b6bff" stroke="none"></circle><circle r="9.605263157894736" cx="500" cy="466.66666666666674" fill="#260145ff" stroke="none"></circle><circle r="9.605263157894736" cx="600" cy="466.66666666666674" fill="#371b6bff" stroke="none"></circle><circle r="9.605263157894736" cx="700" cy="466.66666666666674" fill="#260145ff" stroke="none"></circle><circle r="9.605263157894736" cx="800" cy="466.66666666666674" fill="#371b6bff" stroke="none"></circle><circle r="9.605263157894736" cx="0" cy="533.3333333333334" fill="#260145ff" stroke="none"></circle><circle r="9.605263157894736" cx="100" cy="533.3333333333334" fill="#371b6bff" stroke="none"></circle><circle r="9.605263157894736" cx="200" cy="533.3333333333334" fill="#260145ff" stroke="none"></circle><circle r="9.605263157894736" cx="300" cy="533.3333333333334" fill="#371b6bff" stroke="none"></circle><circle r="9.605263157894736" cx="400" cy="533.3333333333334" fill="#260145ff" stroke="none"></circle><circle r="9.605263157894736" cx="500" cy="533.3333333333334" fill="#371b6bff" stroke="none"></circle><circle r="9.605263157894736" cx="600" cy="533.3333333333334" fill="#260145ff" stroke="none"></circle><circle r="9.605263157894736" cx="700" cy="533.3333333333334" fill="#371b6bff" stroke="none"></circle><circle r="9.605263157894736" cx="800" cy="533.3333333333334" fill="#260145ff" stroke="none"></circle><circle r="9.605263157894736" cx="0" cy="600" fill="#371b6bff" stroke="none"></circle><circle r="9.605263157894736" cx="100" cy="600" fill="#260145ff" stroke="none"></circle><circle r="9.605263157894736" cx="200" cy="600" fill="#371b6bff" stroke="none"></circle><circle r="9.605263157894736" cx="300" cy="600" fill="#260145ff" stroke="none"></circle><circle r="9.605263157894736" cx="400" cy="600" fill="#371b6bff" stroke="none"></circle><circle r="9.605263157894736" cx="500" cy="600" fill="#260145ff" stroke="none"></circle><circle r="9.605263157894736" cx="600" cy="600" fill="#371b6bff" stroke="none"></circle><circle r="9.605263157894736" cx="700" cy="600" fill="#260145ff" stroke="none"></circle><circle r="9.605263157894736" cx="800" cy="600" fill="#371b6bff" stroke="none"></circle><circle r="9.605263157894736" cx="0" cy="666.6666666666666" fill="#260145ff" stroke="none"></circle><circle r="9.605263157894736" cx="100" cy="666.6666666666666" fill="#371b6bff" stroke="none"></circle><circle r="9.605263157894736" cx="200" cy="666.6666666666666" fill="#260145ff" stroke="none"></circle><circle r="9.605263157894736" cx="300" cy="666.6666666666666" fill="#371b6bff" stroke="none"></circle><circle r="9.605263157894736" cx="400" cy="666.6666666666666" fill="#260145ff" stroke="none"></circle><circle r="9.605263157894736" cx="500" cy="666.6666666666666" fill="#371b6bff" stroke="none"></circle><circle r="9.605263157894736" cx="600" cy="666.6666666666666" fill="#260145ff" stroke="none"></circle><circle r="9.605263157894736" cx="700" cy="666.6666666666666" fill="#371b6bff" stroke="none"></circle><circle r="9.605263157894736" cx="800" cy="666.6666666666666" fill="#260145ff" stroke="none"></circle><circle r="9.605263157894736" cx="0" cy="733.3333333333333" fill="#371b6bff" stroke="none"></circle><circle r="9.605263157894736" cx="100" cy="733.3333333333333" fill="#260145ff" stroke="none"></circle><circle r="9.605263157894736" cx="200" cy="733.3333333333333" fill="#371b6bff" stroke="none"></circle><circle r="9.605263157894736" cx="300" cy="733.3333333333333" fill="#260145ff" stroke="none"></circle><circle r="9.605263157894736" cx="400" cy="733.3333333333333" fill="#371b6bff" stroke="none"></circle><circle r="9.605263157894736" cx="500" cy="733.3333333333333" fill="#260145ff" stroke="none"></circle><circle r="9.605263157894736" cx="600" cy="733.3333333333333" fill="#371b6bff" stroke="none"></circle><circle r="9.605263157894736" cx="700" cy="733.3333333333333" fill="#260145ff" stroke="none"></circle><circle r="9.605263157894736" cx="800" cy="733.3333333333333" fill="#371b6bff" stroke="none"></circle><circle r="9.605263157894736" cx="0" cy="799.9999999999999" fill="#260145ff" stroke="none"></circle><circle r="9.605263157894736" cx="100" cy="799.9999999999999" fill="#371b6bff" stroke="none"></circle><circle r="9.605263157894736" cx="200" cy="799.9999999999999" fill="#260145ff" stroke="none"></circle><circle r="9.605263157894736" cx="300" cy="799.9999999999999" fill="#371b6bff" stroke="none"></circle><circle r="9.605263157894736" cx="400" cy="799.9999999999999" fill="#260145ff" stroke="none"></circle><circle r="9.605263157894736" cx="500" cy="799.9999999999999" fill="#371b6bff" stroke="none"></circle><circle r="9.605263157894736" cx="600" cy="799.9999999999999" fill="#260145ff" stroke="none"></circle><circle r="9.605263157894736" cx="700" cy="799.9999999999999" fill="#371b6bff" stroke="none"></circle><circle r="9.605263157894736" cx="800" cy="799.9999999999999" fill="#260145ff" stroke="none"></circle></g></svg>